<?xml version="1.0" standalone="no"?>
<!DOCTYPE svg PUBLIC "-//W3C//DTD SVG 20010904//EN"
 "http://www.w3.org/TR/2001/REC-SVG-20010904/DTD/svg10.dtd">
<svg version="1.0" xmlns="http://www.w3.org/2000/svg"
 width="400.000000pt" height="400.000000pt" viewBox="0 0 400.000000 400.000000"
 preserveAspectRatio="xMidYMid meet">

<g transform="translate(0.000000,400.000000) scale(0.100000,-0.100000)"
fill="#000000" stroke="none">
<path d="M0 2000 l0 -2000 2000 0 2000 0 0 2000 0 2000 -2000 0 -2000 0 0
-2000z m1130 585 c78 -46 94 -116 65 -276 -10 -54 -21 -103 -25 -109 -4 -7
-41 -10 -102 -8 l-95 3 18 94 c13 66 15 99 8 112 -13 25 -63 25 -86 -1 -25
-26 -171 -775 -156 -799 14 -23 56 -25 81 -4 15 12 26 41 37 93 8 41 17 85 20
98 5 21 10 22 104 22 l98 0 -19 -102 c-42 -229 -132 -318 -323 -318 -77 0
-135 21 -172 62 -26 27 -42 98 -36 149 7 51 142 748 154 794 27 98 86 166 171
197 71 25 209 21 258 -7z m572 1 c57 -28 82 -76 81 -156 -1 -86 -144 -810
-173 -878 -45 -104 -143 -162 -275 -162 -83 0 -149 24 -181 65 -47 62 -44 100
40 531 42 216 83 411 91 434 32 92 82 143 172 176 54 20 197 14 245 -10z m588
-14 c43 -21 77 -71 85 -125 5 -31 -14 -145 -69 -427 -41 -212 -82 -406 -91
-431 -20 -59 -75 -123 -129 -152 -37 -20 -58 -22 -223 -25 -147 -3 -183 -1
-183 10 0 7 50 273 112 591 l112 577 176 0 c144 -1 181 -4 210 -18z m666 -12
c-3 -17 -11 -59 -18 -95 l-11 -65 -133 0 c-118 0 -133 -2 -138 -17 -2 -10 -14
-70 -26 -133 -11 -63 -23 -123 -26 -132 -5 -16 5 -18 105 -18 60 0 112 -3 114
-8 3 -4 -3 -45 -12 -92 l-17 -85 -114 -5 -115 -5 -31 -152 -31 -153 133 0 c74
0 134 -3 134 -7 -1 -5 -9 -46 -18 -93 l-18 -85 -232 -3 c-128 -1 -232 0 -232
3 0 10 221 1149 225 1163 3 9 60 12 236 12 l232 0 -7 -30z m444 8 c86 -44 98
-117 55 -329 -35 -173 -60 -216 -168 -284 -14 -9 -12 -36 24 -260 21 -137 39
-258 39 -267 0 -16 -12 -18 -104 -18 l-105 0 -5 43 c-3 23 -10 119 -16 212
-11 175 -19 259 -25 253 -1 -1 -25 -117 -51 -255 l-49 -253 -97 0 c-54 0 -98
3 -98 8 -1 4 50 269 112 590 l112 582 166 0 c152 0 169 -2 210 -22z"/>
<path d="M1487 2403 c-23 -27 -170 -779 -156 -805 11 -20 50 -24 79 -8 24 13
25 16 106 438 51 265 66 357 58 370 -16 24 -66 27 -87 5z"/>
<path d="M2065 2388 c-2 -7 -36 -177 -75 -378 -38 -201 -72 -375 -75 -387 -5
-21 -2 -23 38 -23 31 0 49 6 62 20 13 15 37 117 87 373 38 193 67 363 66 377
-3 22 -8 25 -51 28 -32 2 -49 -1 -52 -10z"/>
<path d="M3185 2388 c-2 -7 -14 -65 -25 -128 -12 -63 -24 -125 -27 -137 -5
-21 -1 -23 31 -23 57 0 70 22 95 154 18 92 20 120 11 132 -15 17 -79 19 -85 2z"/>
</g>
</svg>
